
<svg width="100%" height="100%" viewBox="0 0 800 600" xmlns="http://www.w3.org/2000/svg">
  <defs>
    <linearGradient id="sky" x1="0" y1="0" x2="0" y2="1">
      <stop offset="0%" stop-color="#e0f0f5"/>
      <stop offset="100%" stop-color="#cfe3e9"/>
    </linearGradient>
    <linearGradient id="lake" x1="0" y1="0" x2="0" y2="1">
      <stop offset="0%" stop-color="#b3dbe3"/>
      <stop offset="100%" stop-color="#a0cdd6"/>
    </linearGradient>
  </defs>

  <!-- Sky -->
  <rect width="800" height="600" fill="url(#sky)" />

  <!-- Distant mountains -->
  <path d="M0 300 Q150 180 300 280 T600 250 T800 270 L800 400 L0 400 Z" fill="#c4d6d3" />

  <!-- Mid-range hills -->
  <path d="M0 350 Q200 230 400 340 T800 320 L800 400 L0 400 Z" fill="#aabebb" opacity="0.7"/>

  <!-- Ground -->
  <rect y="400" width="800" height="200" fill="#9cb1ae" />

  <!-- Lake -->
  <ellipse cx="400" cy="460" rx="280" ry="40" fill="url(#lake)" opacity="0.6" />

  <!-- Trees -->
  <path d="M100 380 l10 -40 l10 40 Z" fill="#5d736e"/>
  <path d="M140 390 l8 -35 l8 35 Z" fill="#5d736e"/>
  <path d="M180 375 l12 -45 l12 45 Z" fill="#4d625f"/>
  <path d="M600 385 l10 -40 l10 40 Z" fill="#5d736e"/>
  <path d="M640 395 l8 -35 l8 35 Z" fill="#5d736e"/>
  <path d="M680 380 l12 -45 l12 45 Z" fill="#4d625f"/>
</svg>
