<?xml version="1.0" encoding="UTF-8" standalone="no"?>
<!-- Created with Inkscape (http://www.inkscape.org/) -->

<svg
   width="40.773621mm"
   height="40.773621mm"
   viewBox="0 0 40.773621 40.773621"
   version="1.1"
   id="svg1"
   inkscape:version="1.4.2 (ebf0e940, 2025-05-08)"
   sodipodi:docname="favicon.svg"
   xmlns:inkscape="http://www.inkscape.org/namespaces/inkscape"
   xmlns:sodipodi="http://sodipodi.sourceforge.net/DTD/sodipodi-0.dtd"
   xmlns="http://www.w3.org/2000/svg"
   xmlns:svg="http://www.w3.org/2000/svg">
  <sodipodi:namedview
     id="namedview1"
     pagecolor="#ffffff"
     bordercolor="#000000"
     borderopacity="0.25"
     inkscape:showpageshadow="2"
     inkscape:pageopacity="0.0"
     inkscape:pagecheckerboard="0"
     inkscape:deskcolor="#d1d1d1"
     inkscape:document-units="mm"
     inkscape:zoom="3.4565095"
     inkscape:cx="78.547448"
     inkscape:cy="65.962498"
     inkscape:window-width="1936"
     inkscape:window-height="1119"
     inkscape:window-x="0"
     inkscape:window-y="25"
     inkscape:window-maximized="0"
     inkscape:current-layer="layer3"
     showgrid="false" />
  <defs
     id="defs1" />
  <g
     inkscape:groupmode="layer"
     id="layer4"
     inkscape:label="tausta"
     transform="translate(-14.949524,-15.932528)" />
  <g
     inkscape:label="Layer 1"
     inkscape:groupmode="layer"
     id="layer1"
     transform="translate(-37.301071,-34.916033)"
     style="display:inline" />
  <g
     inkscape:groupmode="layer"
     id="layer2"
     inkscape:label="lines"
     style="display:inline"
     transform="translate(-14.949524,-15.932528)" />
  <g
     inkscape:groupmode="layer"
     id="layer3"
     inkscape:label="nodes"
     style="display:inline"
     transform="translate(-14.949524,-15.932528)">
    <rect
       style="fill:#e0f0f5;fill-opacity:1;stroke:none;stroke-width:2;stroke-linejoin:bevel"
       id="rect2"
       width="40.773621"
       height="40.773621"
       x="14.949524"
       y="15.932528" />
    <path
       id="path2"
       style="fill:#c4d6d3;fill-opacity:1;stroke:none;stroke-width:2.15671;stroke-linejoin:bevel"
       d="m 48.70922,27.19757 c -0.876349,-0.02674 -1.793105,0.03999 -2.758488,0.221976 -11.219811,2.115092 -19.217346,8.476631 -31.001208,10.548828 V 58.822935 H 55.723263 V 29.376444 C 53.603428,28.199881 51.338269,27.277803 48.70922,27.19757 Z" />
    <path
       id="path1"
       style="fill:#9cb1ae;fill-opacity:1;stroke:none;stroke-width:2.17497;stroke-linejoin:bevel"
       d="m 21.219942,27.476222 c -2.387388,0.0071 -4.443147,0.272356 -6.270418,0.701071 v 28.528974 h 40.773739 v -7.823965 c -2.814485,0.93173 -5.917662,1.651529 -8.785511,1.649717 C 36.762137,50.525617 34.31862,27.437501 21.219942,27.476222 Z" />
    <path
       d="m 29.96434,46.988735 3.526116,-14.104467 3.526116,14.104467 z"
       fill="#5d736e"
       id="path9"
       style="stroke-width:0.352611" />
    <path
       d="m 48.776408,52.084052 2.116667,-9.260416 2.116667,9.260416 z"
       fill="#5d736e"
       id="path10"
       style="stroke-width:0.264583" />
    <path
       d="m 15.468039,52.478446 7.951495,-29.818105 7.951495,29.818105 z"
       fill="#4d625f"
       id="path11"
       style="stroke-width:0.662624" />
    <path
       d="m 41.867303,41.825632 1.016606,-4.066425 1.016606,4.066425 z"
       fill="#5d736e"
       id="path4"
       style="stroke-width:0.101661" />
    <path
       d="m 53.603016,40.396484 0.813285,-3.558122 0.813285,3.558122 z"
       fill="#5d736e"
       id="path5"
       style="stroke-width:0.101661" />
  </g>
</svg>
